<svg xmlns="http://www.w3.org/2000/svg" xmlns:xlink="http://www.w3.org/1999/xlink" width="50" zoomAndPan="magnify" viewBox="0 0 37.5 37.499999" height="50" preserveAspectRatio="xMidYMid meet" version="1.0"><defs><g/><clipPath id="407fae660d"><path d="M 0 0 L 37.007812 0 L 37.007812 37.007812 L 0 37.007812 Z M 0 0 " clip-rule="nonzero"/></clipPath></defs><g clip-path="url(#407fae660d)"><path fill="#ffffff" d="M 0 0 L 37.007812 0 L 37.007812 37.007812 L 0 37.007812 Z M 0 0 " fill-opacity="1" fill-rule="nonzero"/><path fill="#ebebeb" d="M 0 0 L 37.007812 0 L 37.007812 37.007812 L 0 37.007812 Z M 0 0 " fill-opacity="1" fill-rule="nonzero"/></g><g fill="#2e2e2e" fill-opacity="1"><g transform="translate(1.316721, 27.951384)"><g><path d="M 15.1875 -3.859375 L 6.046875 -3.859375 L 4.265625 0 L 1.4375 0 L 10.796875 -20.1875 L 19.671875 0 L 16.875 0 Z M 14.078125 -6.40625 L 10.703125 -14 L 7.21875 -6.40625 Z M 14.078125 -6.40625 "/></g></g></g><g fill="#2e2e2e" fill-opacity="1"><g transform="translate(19.730034, 27.951384)"><g><path d="M 2.609375 -19.984375 L 5.21875 -19.984375 L 5.21875 -2.546875 L 15.375 -2.546875 L 15.375 0 L 2.609375 0 Z M 2.609375 -19.984375 "/></g></g></g></svg>